<svg xmlns="http://www.w3.org/2000/svg" shape-rendering="geometricPrecision" text-rendering="geometricPrecision" image-rendering="optimizeQuality" fill-rule="evenodd" clip-rule="evenodd" viewBox="0 0 512 493.17"><path fill-rule="nonzero" d="M399.906 315.735l25.531 149.782c.073.425.116.85.135 1.267 1.826 19.447-18.652 32.369-35.196 23.536l-133.735-71.529-133.036 71.152c-17.085 9.905-38.993-4.323-35.707-24.615l24.625-149.481L7.449 208.726c-14.28-13.541-7.013-38.338 13.159-41.235l146.867-21.037 67.749-133.341.391-.707c9.074-16.693 33.718-16.645 42.484.78l67.094 133.282 146.163 21.015c15.233 2.22 24.726 18.102 18.919 32.691a23.97 23.97 0 01-5.085 7.869L399.906 315.735zm5.232 153.207l-26.403-154.903.015-.003a10.256 10.256 0 012.762-8.895l108.941-111.432c1.995-2.05.758-5.465-1.996-5.854l-151.481-21.778c-3.213-.469-6.159-2.438-7.731-5.555L259.74 22.447c-1.301-2.587-4.48-2.461-6.107-.173l-70.067 137.907a10.282 10.282 0 01-7.9 5.887l-152.2 21.79c-2.71.38-3.676 3.289-2.281 5.524 36.534 37.193 73.022 74.437 109.532 111.656a10.27 10.27 0 012.942 8.985L108.19 468.59c-.538 3.318 2.832 4.925 5.673 3.279l137.911-73.761a10.247 10.247 0 019.698-.019l138.569 74.113c2.441 1.299 5.152-.568 5.097-3.26z"/></svg>